STARTFONT 2.1
FONT -MIT-25VCTL KST-Medium-R-Normal--25-9-200-200-P-13-ISO8859-1
SIZE 9 200 200
FONTBOUNDINGBOX 23 25 -2 -6
STARTPROPERTIES 17
ADD_STYLE_NAME ""
AVERAGE_WIDTH 13
CHARSET_ENCODING "1"
CHARSET_REGISTRY "ISO8859"
DEFAULT_CHAR 0
FAMILY "25VCTL KST"
FONT_ASCENT 19
FONT_DESCENT 6
FOUNDRY "MIT"
PIXEL_SIZE 25
POINT_SIZE 9
RESOLUTION_X 200
RESOLUTION_Y 200
SETWIDTH_NAME "Normal"
SLANT "R"
SPACING "P"
WEIGHT_NAME "Medium"
ENDPROPERTIES
CHARS 121
STARTCHAR char1
ENCODING 1
SWIDTH 1554 0
DWIDTH 14 0
BBX 12 25 0 -6
BITMAP
0600
0600
0600
0600
0600
0600
0600
0600
0600
0600
0600
0600
0600
0600
C630
6660
36C0
1F80
0F00
0600
0000
0000
0000
0000
0000
ENDCHAR
STARTCHAR char2
ENCODING 2
SWIDTH 2442 0
DWIDTH 22 0
BBX 20 25 0 -6
BITMAP
000000
000000
000000
000000
000000
000000
000060
0000C0
000180
000180
1C0300
3F0600
61CE00
C07C00
C03C00
C03000
40E000
61D830
3F0E60
1E07C0
000000
000000
000000
000000
000000
ENDCHAR
STARTCHAR char3
ENCODING 3
SWIDTH 2220 0
DWIDTH 20 0
BBX 18 25 0 -6
BITMAP
000000
000F00
001980
0031C0
0060C0
00C0C0
01C180
018300
010300
030600
030C00
061E00
060600
0C0700
0C0380
1801C0
1800C0
390180
31C300
30FE00
700000
600000
600000
600000
E00000
ENDCHAR
STARTCHAR char4
ENCODING 4
SWIDTH 1887 0
DWIDTH 17 0
BBX 15 25 0 -6
BITMAP
0000
0000
0000
0000
0000
0100
0380
06C0
06C0
0C60
0C60
1830
1830
3018
3018
600C
600C
C006
C006
0000
0000
0000
0000
0000
0000
ENDCHAR
STARTCHAR char5
ENCODING 5
SWIDTH 1332 0
DWIDTH 12 0
BBX 10 25 0 -6
BITMAP
0000
0000
0000
0000
0000
0000
0000
0000
0000
0000
FFC0
FFC0
00C0
00C0
00C0
00C0
0000
0000
0000
0000
0000
0000
0000
0000
0000
ENDCHAR
STARTCHAR char6
ENCODING 6
SWIDTH 1332 0
DWIDTH 12 0
BBX 9 25 0 -6
BITMAP
0000
0000
0000
0000
0780
0C00
1800
3000
6000
6000
E000
FF80
E000
6000
6000
3000
1800
0C00
0780
0000
0000
0000
0000
0000
0000
ENDCHAR
STARTCHAR char7
ENCODING 7
SWIDTH 1776 0
DWIDTH 16 0
BBX 14 25 0 -6
BITMAP
0000
0000
0000
0000
0000
0000
0000
FFC0
FFF8
307C
3060
3060
3060
3060
3060
3060
3060
3060
3060
F060
003C
0000
0000
0000
0000
ENDCHAR
STARTCHAR char8
ENCODING 8
SWIDTH 1665 0
DWIDTH 15 0
BBX 13 25 0 -6
BITMAP
0000
0000
C000
F000
7800
1800
0C00
0C00
0600
0600
0600
0F00
1B00
3180
3180
60C0
E0C0
C060
8038
0018
0000
0000
0000
0000
0000
ENDCHAR
STARTCHAR char11
ENCODING 11
SWIDTH 1554 0
DWIDTH 14 0
BBX 12 25 0 -6
BITMAP
0600
0F00
1F80
36C0
6660
C630
0600
0600
0600
0600
0600
0600
0600
0600
0600
0600
0600
0600
0600
0600
0000
0000
0000
0000
0000
ENDCHAR
STARTCHAR char14
ENCODING 14
SWIDTH 2553 0
DWIDTH 23 0
BBX 20 25 1 -6
BITMAP
000000
000000
000000
000000
000000
000000
1E0780
330CC0
619860
C0F030
C06030
C06030
C06030
C06030
C0F030
619860
339CC0
1F0F80
000000
000000
000000
000000
000000
000000
000000
ENDCHAR
STARTCHAR char15
ENCODING 15
SWIDTH 1665 0
DWIDTH 15 0
BBX 13 25 0 -6
BITMAP
1C00
0600
0300
0380
0180
00C0
0060
0060
0030
1F30
3FF0
6078
4038
C018
C018
C018
4030
6030
2060
1FC0
0000
0000
0000
0000
0000
ENDCHAR
STARTCHAR char16
ENCODING 16
SWIDTH 1887 0
DWIDTH 17 0
BBX 14 25 0 -6
BITMAP
0000
0000
0000
0000
0000
0000
1FFC
3FFC
7000
E000
C000
C000
C000
E000
7000
3FFC
1FFC
0000
0000
0000
0000
0000
0000
0000
0000
ENDCHAR
STARTCHAR char17
ENCODING 17
SWIDTH 1887 0
DWIDTH 17 0
BBX 14 25 0 -6
BITMAP
0000
0000
0000
0000
0000
0000
FFE0
FFF0
0038
001C
000C
000C
000C
001C
0038
FFF0
FFE0
0000
0000
0000
0000
0000
0000
0000
0000
ENDCHAR
STARTCHAR char18
ENCODING 18
SWIDTH 1665 0
DWIDTH 15 0
BBX 11 25 1 -6
BITMAP
0000
0000
0000
0000
0000
1F00
3F80
71C0
E0E0
C060
C060
C060
C060
C060
C060
C060
C060
C060
C060
C060
0000
0000
0000
0000
0000
ENDCHAR
STARTCHAR char19
ENCODING 19
SWIDTH 1665 0
DWIDTH 15 0
BBX 11 25 1 -6
BITMAP
0000
0000
0000
0000
0000
C060
C060
C060
C060
C060
C060
C060
C060
C060
C060
C060
E0E0
71C0
3F80
1F00
0000
0000
0000
0000
0000
ENDCHAR
STARTCHAR char20
ENCODING 20
SWIDTH 1776 0
DWIDTH 16 0
BBX 14 25 0 -6
BITMAP
C00C
C00C
6018
6018
6018
3030
3030
3FF0
1FE0
1860
1860
0CC0
0CC0
0CC0
0780
0780
0780
0300
0300
0300
0000
0000
0000
0000
0000
ENDCHAR
STARTCHAR char21
ENCODING 21
SWIDTH 1665 0
DWIDTH 15 0
BBX 13 25 0 -6
BITMAP
FFF8
FFF8
0018
0018
0018
0018
0018
0018
0018
07F8
07F8
0018
0018
0018
0018
0018
0018
0018
FFF8
FFF8
0000
0000
0000
0000
0000
ENDCHAR
STARTCHAR char22
ENCODING 22
SWIDTH 1776 0
DWIDTH 16 0
BBX 14 25 0 -6
BITMAP
0000
0000
0000
0000
0000
0780
1FE0
2010
7878
4CC8
C78C
C30C
C78C
4CC8
7878
3030
1FE0
0780
0000
0000
0000
0000
0000
0000
0000
ENDCHAR
STARTCHAR char23
ENCODING 23
SWIDTH 1998 0
DWIDTH 18 0
BBX 16 25 0 -6
BITMAP
0000
0000
0000
0000
0000
0000
0000
0C30
1818
300C
6006
FFFF
FFFF
6006
300C
1818
0C30
0000
0000
0000
0000
0000
0000
0000
0000
ENDCHAR
STARTCHAR char24
ENCODING 24
SWIDTH 1998 0
DWIDTH 18 0
BBX 16 25 0 -6
BITMAP
0000
0000
0000
0000
0000
0000
0400
0C00
1800
3000
6000
FFFF
FFFF
6000
3000
1800
0C00
0400
0000
0000
0000
0000
0000
0000
0000
ENDCHAR
STARTCHAR char25
ENCODING 25
SWIDTH 1998 0
DWIDTH 18 0
BBX 16 25 0 -6
BITMAP
0000
0000
0000
0000
0000
0000
0020
0030
0018
000C
0006
FFFF
FFFF
0006
000C
0018
0030
0020
0000
0000
0000
0000
0000
0000
0000
ENDCHAR
STARTCHAR char26
ENCODING 26
SWIDTH 1776 0
DWIDTH 16 0
BBX 12 25 1 -6
BITMAP
0000
0000
0030
0030
0060
0060
00C0
00C0
0180
FFF0
FFF0
0300
0600
FFF0
FFF0
1800
3000
3000
6000
6000
C000
C000
0000
0000
0000
ENDCHAR
STARTCHAR char27
ENCODING 27
SWIDTH 1776 0
DWIDTH 16 0
BBX 14 25 0 -6
BITMAP
0000
0000
0000
0000
0000
0000
0000
0000
1C04
3E04
7F0C
6798
C3F8
81F0
80E0
0000
0000
0000
0000
0000
0000
0000
0000
0000
0000
ENDCHAR
STARTCHAR char28
ENCODING 28
SWIDTH 1554 0
DWIDTH 14 0
BBX 12 25 0 -6
BITMAP
0000
0000
0000
0000
0030
00F0
03C0
0F00
3C00
F000
F000
3C00
0F00
03C0
00F0
0030
0000
0000
FFF0
FFF0
0000
0000
0000
0000
0000
ENDCHAR
STARTCHAR char29
ENCODING 29
SWIDTH 1554 0
DWIDTH 14 0
BBX 12 25 0 -6
BITMAP
0000
0000
0000
0000
C000
F000
3C00
0F00
03C0
00F0
00F0
03C0
0F00
3C00
F000
C000
0000
0000
FFF0
FFF0
0000
0000
0000
0000
0000
ENDCHAR
STARTCHAR char30
ENCODING 30
SWIDTH 1332 0
DWIDTH 12 0
BBX 10 25 0 -6
BITMAP
0000
0000
0000
0000
0000
0000
0000
FFC0
FFC0
0000
0000
FFC0
FFC0
0000
0000
FFC0
FFC0
0000
0000
0000
0000
0000
0000
0000
0000
ENDCHAR
STARTCHAR char31
ENCODING 31
SWIDTH 1887 0
DWIDTH 17 0
BBX 15 25 0 -6
BITMAP
0000
0000
0000
0000
0000
0000
C006
C006
600C
600C
3018
3018
1830
1830
0C60
0C60
06C0
06C0
0380
0100
0000
0000
0000
0000
0000
ENDCHAR
STARTCHAR char32
ENCODING 32
SWIDTH 1110 0
DWIDTH 10 0
BBX 1 25 0 -6
BITMAP
00
00
00
00
00
00
00
00
00
00
00
00
00
00
00
00
00
00
00
00
00
00
00
00
00
ENDCHAR
STARTCHAR char33
ENCODING 33
SWIDTH 777 0
DWIDTH 7 0
BBX 4 25 1 -6
BITMAP
00
60
F0
F0
F0
F0
F0
60
60
60
60
60
60
00
00
00
60
F0
F0
60
00
00
00
00
00
ENDCHAR
STARTCHAR char34
ENCODING 34
SWIDTH 1221 0
DWIDTH 11 0
BBX 8 25 1 -6
BITMAP
E7
E7
E7
E7
E7
E7
42
00
00
00
00
00
00
00
00
00
00
00
00
00
00
00
00
00
00
ENDCHAR
STARTCHAR char35
ENCODING 35
SWIDTH 1776 0
DWIDTH 16 0
BBX 13 25 1 -6
BITMAP
0000
0000
0000
0000
0000
0000
18C0
18C0
18C0
FFF8
FFF8
18C0
18C0
18C0
FFF8
FFF8
18C0
18C0
18C0
0000
0000
0000
0000
0000
0000
ENDCHAR
STARTCHAR char36
ENCODING 36
SWIDTH 1443 0
DWIDTH 13 0
BBX 11 25 0 -6
BITMAP
0900
0F80
39C0
2940
6960
6960
6960
7900
7D00
3F00
1F80
0BC0
09E0
6960
E920
E960
4960
69C0
3F80
0900
0900
0900
0000
0000
0000
ENDCHAR
STARTCHAR char37
ENCODING 37
SWIDTH 1665 0
DWIDTH 15 0
BBX 13 25 0 -6
BITMAP
0000
03F8
0630
7C30
8860
8860
88C0
70C0
0180
0180
0300
0300
0600
0600
0C00
0C70
1888
1888
3088
3070
0000
0000
0000
0000
0000
ENDCHAR
STARTCHAR char38
ENCODING 38
SWIDTH 2109 0
DWIDTH 19 0
BBX 17 25 0 -6
BITMAP
000000
03C000
0EF000
0C7000
183800
1C3000
1C7000
0EE000
0F8000
0F0F80
3F0200
738200
61C200
E1C600
E0E400
E0E400
F07800
F03800
787C00
3FCF00
0E0000
000000
000000
000000
000000
ENDCHAR
STARTCHAR char39
ENCODING 39
SWIDTH 777 0
DWIDTH 7 0
BBX 5 25 0 -6
BITMAP
00
F0
F8
D8
08
18
30
60
00
00
00
00
00
00
00
00
00
00
00
00
00
00
00
00
00
ENDCHAR
STARTCHAR char40
ENCODING 40
SWIDTH 999 0
DWIDTH 9 0
BBX 6 25 0 -6
BITMAP
04
0C
18
18
30
30
60
60
60
E0
C0
C0
C0
E0
60
60
60
30
30
18
18
0C
04
00
00
ENDCHAR
STARTCHAR char41
ENCODING 41
SWIDTH 999 0
DWIDTH 9 0
BBX 6 25 1 -6
BITMAP
00
00
80
C0
60
60
30
30
18
18
18
1C
0C
0C
0C
1C
18
18
18
30
30
60
60
C0
80
ENDCHAR
STARTCHAR char42
ENCODING 42
SWIDTH 1443 0
DWIDTH 13 0
BBX 11 25 0 -6
BITMAP
0000
0000
0000
0000
0000
0400
0E00
0E00
E4E0
F5E0
3F80
0E00
0E00
3F80
F5E0
E4E0
0E00
0E00
0400
0000
0000
0000
0000
0000
0000
ENDCHAR
STARTCHAR char43
ENCODING 43
SWIDTH 1665 0
DWIDTH 15 0
BBX 12 25 1 -6
BITMAP
0000
0000
0000
0000
0000
0000
0600
0600
0600
0600
0600
FFF0
FFF0
0600
0600
0600
0600
0600
0000
0000
0000
0000
0000
0000
0000
ENDCHAR
STARTCHAR char44
ENCODING 44
SWIDTH 666 0
DWIDTH 6 0
BBX 4 25 0 -6
BITMAP
00
00
00
00
00
00
00
00
00
00
00
00
00
00
00
00
60
F0
F0
30
30
70
60
C0
80
ENDCHAR
STARTCHAR char45
ENCODING 45
SWIDTH 1443 0
DWIDTH 13 0
BBX 10 25 1 -6
BITMAP
0000
0000
0000
0000
0000
0000
0000
0000
0000
0000
0000
FFC0
FFC0
0000
0000
0000
0000
0000
0000
0000
0000
0000
0000
0000
0000
ENDCHAR
STARTCHAR char46
ENCODING 46
SWIDTH 666 0
DWIDTH 6 0
BBX 4 25 0 -6
BITMAP
00
00
00
00
00
00
00
00
00
00
00
00
00
00
00
00
00
E0
F0
E0
00
00
00
00
00
ENDCHAR
STARTCHAR char47
ENCODING 47
SWIDTH 1443 0
DWIDTH 13 0
BBX 10 25 1 -6
BITMAP
00C0
01C0
0180
0180
0380
0300
0300
0700
0600
0600
0E00
0C00
0C00
1C00
1800
1800
3800
3000
3000
7000
6000
6000
E000
C000
C000
ENDCHAR
STARTCHAR char48
ENCODING 48
SWIDTH 1776 0
DWIDTH 16 0
BBX 14 25 0 -6
BITMAP
1FE0
3FF0
787C
703C
703C
7078
70F8
71F8
73B8
7738
7E38
7C38
7838
7038
F038
F038
F878
3FF0
1FE0
0000
0000
0000
0000
0000
0000
ENDCHAR
STARTCHAR char49
ENCODING 49
SWIDTH 1110 0
DWIDTH 10 0
BBX 8 25 0 -6
BITMAP
0C
3C
FC
DC
1C
1C
1C
1C
1C
1C
1C
1C
1C
1C
1C
1C
1C
7F
7F
00
00
00
00
00
00
ENDCHAR
STARTCHAR char50
ENCODING 50
SWIDTH 1443 0
DWIDTH 13 0
BBX 11 25 0 -6
BITMAP
3F80
7FC0
F1E0
E0E0
E0E0
E0E0
00E0
00E0
01E0
03C0
0780
0F00
1E00
3C00
78E0
F0E0
F0E0
FFE0
FFE0
0000
0000
0000
0000
0000
0000
ENDCHAR
STARTCHAR char51
ENCODING 51
SWIDTH 1554 0
DWIDTH 14 0
BBX 12 25 0 -6
BITMAP
FFF0
FFF0
E070
E0F0
E1E0
03C0
0780
0F00
1E00
3FC0
3FE0
00F0
0070
0070
E070
E070
F0F0
7FE0
3FC0
0000
0000
0000
0000
0000
0000
ENDCHAR
STARTCHAR char52
ENCODING 52
SWIDTH 1665 0
DWIDTH 15 0
BBX 13 25 0 -6
BITMAP
07E0
07E0
0FE0
0CE0
1CE0
18E0
38E0
30E0
70E0
60E0
E0E0
FFF8
FFF8
00E0
00E0
00E0
00E0
00E0
00E0
0000
0000
0000
0000
0000
0000
ENDCHAR
STARTCHAR char53
ENCODING 53
SWIDTH 1443 0
DWIDTH 13 0
BBX 11 25 0 -6
BITMAP
FFE0
FFE0
E000
E000
E000
E000
E000
FF80
FFC0
01E0
00E0
00E0
00E0
E0E0
E0E0
E0E0
F1E0
7FC0
3F80
0000
0000
0000
0000
0000
0000
ENDCHAR
STARTCHAR char54
ENCODING 54
SWIDTH 1554 0
DWIDTH 14 0
BBX 12 25 0 -6
BITMAP
3FC0
7FE0
F0F0
E070
E070
E000
E000
E000
FFC0
FFE0
E0F0
E070
E070
E070
E070
E070
F0F0
7FE0
3FC0
0000
0000
0000
0000
0000
0000
ENDCHAR
STARTCHAR char55
ENCODING 55
SWIDTH 1554 0
DWIDTH 14 0
BBX 12 25 0 -6
BITMAP
FFF0
FFF0
E070
E060
E0E0
00C0
01C0
0180
0380
0300
0700
0600
0E00
0C00
1C00
1800
3800
3000
3000
0000
0000
0000
0000
0000
0000
ENDCHAR
STARTCHAR char56
ENCODING 56
SWIDTH 1443 0
DWIDTH 13 0
BBX 11 25 0 -6
BITMAP
3F80
7FC0
F1E0
E0E0
E0E0
E0E0
E0E0
F1E0
7FC0
3F80
71C0
E0E0
E0E0
E0E0
E0E0
E0E0
F1E0
7FC0
3F80
0000
0000
0000
0000
0000
0000
ENDCHAR
STARTCHAR char57
ENCODING 57
SWIDTH 1443 0
DWIDTH 13 0
BBX 11 25 0 -6
BITMAP
3F80
7FC0
F1E0
E0E0
E0E0
E0E0
E0E0
F1E0
7FE0
3FE0
00E0
00E0
00E0
00E0
E0E0
E0E0
F1E0
7FC0
3F80
0000
0000
0000
0000
0000
0000
ENDCHAR
STARTCHAR char58
ENCODING 58
SWIDTH 777 0
DWIDTH 7 0
BBX 4 25 1 -6
BITMAP
00
00
00
00
00
00
00
00
60
F0
F0
60
00
00
00
00
60
F0
F0
60
00
00
00
00
00
ENDCHAR
STARTCHAR char59
ENCODING 59
SWIDTH 666 0
DWIDTH 6 0
BBX 4 25 0 -6
BITMAP
00
00
00
00
00
00
00
00
60
F0
F0
60
00
00
00
60
F0
F0
30
30
70
60
C0
80
00
ENDCHAR
STARTCHAR char60
ENCODING 60
SWIDTH 1554 0
DWIDTH 14 0
BBX 12 25 0 -6
BITMAP
0000
0000
0000
0000
0030
00F0
03C0
0F00
3C00
F000
F000
3C00
0F00
03C0
00F0
0030
0000
0000
0000
0000
0000
0000
0000
0000
0000
ENDCHAR
STARTCHAR char61
ENCODING 61
SWIDTH 1776 0
DWIDTH 16 0
BBX 13 25 1 -6
BITMAP
0000
0000
0000
0000
0000
0000
0000
0000
0000
FFF8
FFF8
0000
0000
FFF8
FFF8
0000
0000
0000
0000
0000
0000
0000
0000
0000
0000
ENDCHAR
STARTCHAR char62
ENCODING 62
SWIDTH 1554 0
DWIDTH 14 0
BBX 12 25 0 -6
BITMAP
0000
0000
0000
0000
C000
F000
3C00
0F00
03C0
00F0
00F0
03C0
0F00
3C00
F000
C000
0000
0000
0000
0000
0000
0000
0000
0000
0000
ENDCHAR
STARTCHAR char63
ENCODING 63
SWIDTH 1221 0
DWIDTH 11 0
BBX 9 25 0 -6
BITMAP
0000
3E00
6700
C100
E180
E380
4380
0780
0F00
1E00
1C00
1800
1000
1000
1000
0000
0000
1800
3C00
1800
0000
0000
0000
0000
0000
ENDCHAR
STARTCHAR char64
ENCODING 64
SWIDTH 2220 0
DWIDTH 20 0
BBX 17 25 1 -6
BITMAP
000000
000000
000000
000000
000000
0FFC00
1FFE00
300F00
600300
47C180
CFE180
9C7180
983180
983180
983180
983300
9C7F00
8FFE00
C00000
600000
3FFF80
000000
000000
000000
000000
ENDCHAR
STARTCHAR char65
ENCODING 65
SWIDTH 1887 0
DWIDTH 17 0
BBX 15 25 0 -6
BITMAP
0380
07C0
07C0
06C0
06C0
0EE0
0C60
0C60
0C60
1FF0
1FF0
1830
1830
3838
3838
3018
3018
F01E
F01E
0000
0000
0000
0000
0000
0000
ENDCHAR
STARTCHAR char66
ENCODING 66
SWIDTH 1776 0
DWIDTH 16 0
BBX 14 25 0 -6
BITMAP
FFF0
FFF8
383C
381C
381C
381C
381C
3838
3FF0
3FF0
3838
381C
381C
381C
381C
381C
383C
FFF8
FFF0
0000
0000
0000
0000
0000
0000
ENDCHAR
STARTCHAR char67
ENCODING 67
SWIDTH 1554 0
DWIDTH 14 0
BBX 12 25 0 -6
BITMAP
3FF0
7FF0
F070
E070
E070
E070
E000
E000
E000
E000
E000
E000
E000
E070
E070
E070
F070
7FF0
3FF0
0000
0000
0000
0000
0000
0000
ENDCHAR
STARTCHAR char68
ENCODING 68
SWIDTH 1776 0
DWIDTH 16 0
BBX 14 25 0 -6
BITMAP
FFF0
FFF8
383C
381C
381C
381C
381C
381C
381C
381C
381C
381C
381C
381C
381C
381C
383C
FFF8
FFF0
0000
0000
0000
0000
0000
0000
ENDCHAR
STARTCHAR char69
ENCODING 69
SWIDTH 1665 0
DWIDTH 15 0
BBX 13 25 0 -6
BITMAP
FFF8
FFF8
3838
3838
3838
3838
3800
3800
3FE0
3FE0
3800
3800
3800
3838
3838
3838
3838
FFF8
FFF8
0000
0000
0000
0000
0000
0000
ENDCHAR
STARTCHAR char70
ENCODING 70
SWIDTH 1554 0
DWIDTH 14 0
BBX 12 25 0 -6
BITMAP
FFF0
FFF0
3870
3870
3870
3870
3800
3800
3FE0
3FE0
3800
3800
3800
3800
3800
3800
3800
FE00
FE00
0000
0000
0000
0000
0000
0000
ENDCHAR
STARTCHAR char71
ENCODING 71
SWIDTH 1554 0
DWIDTH 14 0
BBX 12 25 0 -6
BITMAP
3FF0
7FF0
F070
E070
E070
E070
E000
E000
E3F0
E3F0
E070
E070
E070
E070
E070
E070
F070
7FF0
3FF0
0000
0000
0000
0000
0000
0000
ENDCHAR
STARTCHAR char72
ENCODING 72
SWIDTH 1998 0
DWIDTH 18 0
BBX 16 25 0 -6
BITMAP
F81F
F81F
381C
381C
381C
381C
381C
381C
3FFC
3FFC
381C
381C
381C
381C
381C
381C
381C
F81F
F81F
0000
0000
0000
0000
0000
0000
ENDCHAR
STARTCHAR char73
ENCODING 73
SWIDTH 999 0
DWIDTH 9 0
BBX 7 25 0 -6
BITMAP
FE
FE
38
38
38
38
38
38
38
38
38
38
38
38
38
38
38
FE
FE
00
00
00
00
00
00
ENDCHAR
STARTCHAR char74
ENCODING 74
SWIDTH 1443 0
DWIDTH 13 0
BBX 11 25 0 -6
BITMAP
0FE0
0FE0
0380
0380
0380
0380
0380
0380
0380
0380
0380
0380
0380
0380
0380
0380
E780
FF00
7E00
0000
0000
0000
0000
0000
0000
ENDCHAR
STARTCHAR char75
ENCODING 75
SWIDTH 1887 0
DWIDTH 17 0
BBX 15 25 0 -6
BITMAP
F83C
F83C
3870
3870
38E0
38E0
39C0
39C0
3FE0
3FF0
3FF8
3878
3838
3838
3838
3838
3838
F83E
F83E
0000
0000
0000
0000
0000
0000
ENDCHAR
STARTCHAR char76
ENCODING 76
SWIDTH 1554 0
DWIDTH 14 0
BBX 12 25 0 -6
BITMAP
FE00
FE00
3800
3800
3800
3800
3800
3800
3800
3800
3800
3800
3800
3870
3870
3870
3870
FFF0
FFF0
0000
0000
0000
0000
0000
0000
ENDCHAR
STARTCHAR char77
ENCODING 77
SWIDTH 2442 0
DWIDTH 22 0
BBX 20 25 0 -6
BITMAP
F801F0
FC03F0
3C03C0
3E07C0
3E07C0
3F0FC0
3B0DC0
3B9DC0
3999C0
39F9C0
38F1C0
38F1C0
3861C0
3861C0
3801C0
3801C0
3801C0
F801F0
F801F0
000000
000000
000000
000000
000000
000000
ENDCHAR
STARTCHAR char78
ENCODING 78
SWIDTH 2109 0
DWIDTH 19 0
BBX 17 25 0 -6
BITMAP
F80F80
FC0F80
3C0E00
3E0E00
3E0E00
3F0E00
3B0E00
3B8E00
398E00
39CE00
38CE00
38EE00
386E00
387E00
383E00
383E00
381E00
F81E00
F80E00
000000
000000
000000
000000
000000
000000
ENDCHAR
STARTCHAR char79
ENCODING 79
SWIDTH 1554 0
DWIDTH 14 0
BBX 12 25 0 -6
BITMAP
3FC0
7FE0
F0F0
E070
E070
E070
E070
E070
E070
E070
E070
E070
E070
E070
E070
E070
F0F0
7FE0
3FC0
0000
0000
0000
0000
0000
0000
ENDCHAR
STARTCHAR char80
ENCODING 80
SWIDTH 1665 0
DWIDTH 15 0
BBX 13 25 0 -6
BITMAP
FFE0
FFF0
3878
3838
3838
3838
3838
3878
3FF0
3FE0
3800
3800
3800
3800
3800
3800
3800
FE00
FE00
0000
0000
0000
0000
0000
0000
ENDCHAR
STARTCHAR char81
ENCODING 81
SWIDTH 1776 0
DWIDTH 16 0
BBX 14 25 0 -6
BITMAP
3FC0
7FE0
F0F0
E070
E070
E070
E070
E070
E070
E070
E070
E070
E070
E370
E3F0
E1F0
F0F8
7FFC
3FCC
0000
0000
0000
0000
0000
0000
ENDCHAR
STARTCHAR char82
ENCODING 82
SWIDTH 1998 0
DWIDTH 18 0
BBX 16 25 0 -6
BITMAP
FFE0
FFF0
3878
3838
3838
3838
3838
3878
3FF0
3FF0
3838
381C
381C
381C
381C
381C
381C
F81F
F81F
0000
0000
0000
0000
0000
0000
ENDCHAR
STARTCHAR char83
ENCODING 83
SWIDTH 1554 0
DWIDTH 14 0
BBX 12 25 0 -6
BITMAP
3FF0
7FF0
F070
E070
E070
E000
E000
F000
7FC0
3FE0
00F0
0070
0070
0070
E070
E070
E0F0
FFE0
FFC0
0000
0000
0000
0000
0000
0000
ENDCHAR
STARTCHAR char84
ENCODING 84
SWIDTH 1887 0
DWIDTH 17 0
BBX 15 25 0 -6
BITMAP
FFFE
FFFE
E38E
E38E
E38E
0380
0380
0380
0380
0380
0380
0380
0380
0380
0380
0380
0380
0FE0
0FE0
0000
0000
0000
0000
0000
0000
ENDCHAR
STARTCHAR char85
ENCODING 85
SWIDTH 1998 0
DWIDTH 18 0
BBX 16 25 0 -6
BITMAP
F81F
F81F
381C
381C
381C
381C
381C
381C
381C
381C
381C
381C
381C
381C
381C
381C
3C3C
1FF8
0FF0
0000
0000
0000
0000
0000
0000
ENDCHAR
STARTCHAR char86
ENCODING 86
SWIDTH 1887 0
DWIDTH 17 0
BBX 15 25 0 -6
BITMAP
F01E
F01E
3838
3838
1830
1830
1C70
1C70
0C60
0C60
0EE0
0EE0
06C0
06C0
07C0
07C0
0380
0380
0380
0000
0000
0000
0000
0000
0000
ENDCHAR
STARTCHAR char87
ENCODING 87
SWIDTH 2775 0
DWIDTH 25 0
BBX 23 25 0 -6
BITMAP
F07C1E
F07C1E
306C18
306C18
38EE38
38EE38
18C630
18C630
1DC770
1DC770
0D8360
0D8360
0F83E0
0F83E0
0701C0
0701C0
0701C0
0701C0
0701C0
000000
000000
000000
000000
000000
000000
ENDCHAR
STARTCHAR char88
ENCODING 88
SWIDTH 1776 0
DWIDTH 16 0
BBX 14 25 0 -6
BITMAP
F03C
F03C
3030
3870
3870
1860
1CE0
1CE0
0FC0
0FC0
0FC0
1CE0
1CE0
1860
3870
3870
3030
F03C
F03C
0000
0000
0000
0000
0000
0000
ENDCHAR
STARTCHAR char89
ENCODING 89
SWIDTH 1887 0
DWIDTH 17 0
BBX 14 25 0 -6
BITMAP
F01C
F01C
3838
3838
1C70
1C70
0EE0
0EE0
07C0
07C0
0380
0380
0380
0380
0380
0380
0380
0FE0
0FE0
0000
0000
0000
0000
0000
0000
ENDCHAR
STARTCHAR char90
ENCODING 90
SWIDTH 1665 0
DWIDTH 15 0
BBX 13 25 0 -6
BITMAP
FFF8
FFF8
E0F0
E0E0
E1C0
E1C0
0380
0380
0700
0700
0E00
0E00
1C00
1C00
3838
3838
7838
FFF8
FFF8
0000
0000
0000
0000
0000
0000
ENDCHAR
STARTCHAR char91
ENCODING 91
SWIDTH 1110 0
DWIDTH 10 0
BBX 7 25 1 -6
BITMAP
FE
FE
C0
C0
C0
C0
C0
C0
C0
C0
C0
C0
C0
C0
C0
C0
C0
C0
C0
C0
C0
C0
C0
FE
FE
ENDCHAR
STARTCHAR char92
ENCODING 92
SWIDTH 1443 0
DWIDTH 13 0
BBX 10 25 1 -6
BITMAP
C000
E000
6000
6000
7000
3000
3000
3800
1800
1800
1C00
0C00
0C00
0E00
0600
0600
0700
0300
0300
0380
0180
0180
01C0
00C0
00C0
ENDCHAR
STARTCHAR char93
ENCODING 93
SWIDTH 1110 0
DWIDTH 10 0
BBX 7 25 1 -6
BITMAP
FE
FE
06
06
06
06
06
06
06
06
06
06
06
06
06
06
06
06
06
06
06
06
06
FE
FE
ENDCHAR
STARTCHAR char95
ENCODING 95
SWIDTH 1776 0
DWIDTH 16 0
BBX 16 25 0 -6
BITMAP
0000
0000
0000
0000
0000
0000
0000
0000
0000
0000
0000
0000
0000
0000
0000
0000
0000
0000
0000
0000
0000
FFFF
FFFF
0000
0000
ENDCHAR
STARTCHAR char96
ENCODING 96
SWIDTH 777 0
DWIDTH 7 0
BBX 5 25 0 -6
BITMAP
00
70
F8
F0
80
C0
60
30
18
00
00
00
00
00
00
00
00
00
00
00
00
00
00
00
00
ENDCHAR
STARTCHAR char97
ENCODING 97
SWIDTH 1443 0
DWIDTH 13 0
BBX 11 25 0 -6
BITMAP
0000
0000
0000
0000
0000
0000
0000
7F80
FFC0
E1C0
01C0
01C0
7FC0
FFC0
E1C0
E1C0
E1C0
FFE0
7FE0
0000
0000
0000
0000
0000
0000
ENDCHAR
STARTCHAR char98
ENCODING 98
SWIDTH 1443 0
DWIDTH 13 0
BBX 11 25 0 -6
BITMAP
F000
F000
7000
7000
7000
7000
7000
7FC0
7FE0
70E0
70E0
70E0
70E0
70E0
70E0
70E0
70E0
7FE0
7FC0
0000
0000
0000
0000
0000
0000
ENDCHAR
STARTCHAR char99
ENCODING 99
SWIDTH 1221 0
DWIDTH 11 0
BBX 9 25 0 -6
BITMAP
0000
0000
0000
0000
0000
0000
0000
7F80
FF80
E380
E000
E000
E000
E000
E000
E000
E380
FF80
7F80
0000
0000
0000
0000
0000
0000
ENDCHAR
STARTCHAR char100
ENCODING 100
SWIDTH 1443 0
DWIDTH 13 0
BBX 11 25 0 -6
BITMAP
03C0
03C0
01C0
01C0
01C0
01C0
01C0
7FC0
FFC0
E1C0
E1C0
E1C0
E1C0
E1C0
E1C0
E1C0
E1C0
FFE0
7FE0
0000
0000
0000
0000
0000
0000
ENDCHAR
STARTCHAR char101
ENCODING 101
SWIDTH 1332 0
DWIDTH 12 0
BBX 10 25 0 -6
BITMAP
0000
0000
0000
0000
0000
0000
0000
7F80
FFC0
E1C0
E1C0
FFC0
FFC0
E000
E000
E000
E1C0
FFC0
7F80
0000
0000
0000
0000
0000
0000
ENDCHAR
STARTCHAR char102
ENCODING 102
SWIDTH 999 0
DWIDTH 9 0
BBX 7 25 0 -6
BITMAP
1E
3E
38
38
38
38
38
FE
FE
38
38
38
38
38
38
38
38
7C
7C
00
00
00
00
00
00
ENDCHAR
STARTCHAR char103
ENCODING 103
SWIDTH 1443 0
DWIDTH 13 0
BBX 11 25 0 -6
BITMAP
0000
0000
0000
0000
0000
0000
0000
7FE0
FFE0
E1C0
E1C0
E1C0
E1C0
E1C0
E1C0
E1C0
E1C0
FFC0
7FC0
01C0
01C0
E1C0
FFC0
7F80
0000
ENDCHAR
STARTCHAR char104
ENCODING 104
SWIDTH 1443 0
DWIDTH 13 0
BBX 12 25 0 -6
BITMAP
F000
F000
7000
7000
7000
7000
7000
7FC0
7FE0
70E0
70E0
70E0
70E0
70E0
70E0
70E0
70E0
F8F0
F8F0
0000
0000
0000
0000
0000
0000
ENDCHAR
STARTCHAR char105
ENCODING 105
SWIDTH 777 0
DWIDTH 7 0
BBX 5 25 0 -6
BITMAP
00
70
70
70
00
00
00
F0
F0
70
70
70
70
70
70
70
70
F8
F8
00
00
00
00
00
00
ENDCHAR
STARTCHAR char106
ENCODING 106
SWIDTH 777 0
DWIDTH 7 0
BBX 5 25 0 -6
BITMAP
00
38
38
38
00
00
00
78
78
38
38
38
38
38
38
38
38
38
38
38
38
38
F8
F0
00
ENDCHAR
STARTCHAR char107
ENCODING 107
SWIDTH 1554 0
DWIDTH 14 0
BBX 12 25 0 -6
BITMAP
F000
F000
7000
7000
7000
7000
7000
71E0
73E0
7780
7F00
7E00
7E00
7E00
7F00
7780
73C0
F1F0
F0F0
0000
0000
0000
0000
0000
0000
ENDCHAR
STARTCHAR char108
ENCODING 108
SWIDTH 777 0
DWIDTH 7 0
BBX 5 25 0 -6
BITMAP
F0
F0
70
70
70
70
70
70
70
70
70
70
70
70
70
70
70
F8
F8
00
00
00
00
00
00
ENDCHAR
STARTCHAR char109
ENCODING 109
SWIDTH 2331 0
DWIDTH 21 0
BBX 19 25 0 -6
BITMAP
000000
000000
000000
000000
000000
000000
000000
FFFF80
FFFFC0
70E1C0
70E1C0
70E1C0
70E1C0
70E1C0
70E1C0
70E1C0
70E1C0
F8F1E0
F8F1E0
000000
000000
000000
000000
000000
000000
ENDCHAR
STARTCHAR char110
ENCODING 110
SWIDTH 1554 0
DWIDTH 14 0
BBX 12 25 0 -6
BITMAP
0000
0000
0000
0000
0000
0000
0000
FFC0
FFE0
70E0
70E0
70E0
70E0
70E0
70E0
70E0
70E0
F8F0
F8F0
0000
0000
0000
0000
0000
0000
ENDCHAR
STARTCHAR char111
ENCODING 111
SWIDTH 1332 0
DWIDTH 12 0
BBX 10 25 0 -6
BITMAP
0000
0000
0000
0000
0000
0000
0000
7F80
FFC0
E1C0
E1C0
E1C0
E1C0
E1C0
E1C0
E1C0
E1C0
FFC0
7F80
0000
0000
0000
0000
0000
0000
ENDCHAR
STARTCHAR char112
ENCODING 112
SWIDTH 1443 0
DWIDTH 13 0
BBX 11 25 0 -6
BITMAP
0000
0000
0000
0000
0000
0000
0000
FFC0
FFE0
70E0
70E0
70E0
70E0
70E0
70E0
70E0
70E0
7FE0
7FC0
7000
7000
7000
7000
7000
0000
ENDCHAR
STARTCHAR char113
ENCODING 113
SWIDTH 1443 0
DWIDTH 13 0
BBX 11 25 0 -6
BITMAP
0000
0000
0000
0000
0000
0000
0000
7FE0
FFE0
E1C0
E1C0
E1C0
E1C0
E1C0
E1C0
E1C0
E1C0
FFC0
7FC0
01C0
01C0
01C0
01C0
01C0
0000
ENDCHAR
STARTCHAR char114
ENCODING 114
SWIDTH 1332 0
DWIDTH 12 0
BBX 10 25 0 -6
BITMAP
0000
0000
0000
0000
0000
0000
0000
FF80
FFC0
71C0
71C0
7000
7000
7000
7000
7000
7000
F800
F800
0000
0000
0000
0000
0000
0000
ENDCHAR
STARTCHAR char115
ENCODING 115
SWIDTH 1221 0
DWIDTH 11 0
BBX 9 25 0 -6
BITMAP
0000
0000
0000
0000
0000
0000
0000
7F80
FF80
E380
E000
E000
FF00
7F80
0380
0380
E380
FF80
FF00
0000
0000
0000
0000
0000
0000
ENDCHAR
STARTCHAR char116
ENCODING 116
SWIDTH 999 0
DWIDTH 9 0
BBX 7 25 0 -6
BITMAP
00
00
00
38
38
38
38
FE
FE
38
38
38
38
38
38
38
38
3C
1C
00
00
00
00
00
00
ENDCHAR
STARTCHAR char117
ENCODING 117
SWIDTH 1554 0
DWIDTH 14 0
BBX 12 25 0 -6
BITMAP
0000
0000
0000
0000
0000
0000
0000
F1E0
F1E0
70E0
70E0
70E0
70E0
70E0
70E0
70E0
70E0
7FF0
3FF0
0000
0000
0000
0000
0000
0000
ENDCHAR
STARTCHAR char118
ENCODING 118
SWIDTH 1665 0
DWIDTH 15 0
BBX 13 25 0 -6
BITMAP
0000
0000
0000
0000
0000
0000
0000
F078
F078
3060
38E0
38E0
18C0
1DC0
1DC0
0D80
0F80
0F80
0700
0000
0000
0000
0000
0000
0000
ENDCHAR
STARTCHAR char119
ENCODING 119
SWIDTH 2331 0
DWIDTH 21 0
BBX 19 25 0 -6
BITMAP
000000
000000
000000
000000
000000
000000
000000
F0E1E0
F1F1E0
31B180
31B180
3BBB80
3BBB80
1B1B00
1B1B00
1F1F00
1F1F00
0E0E00
0E0E00
000000
000000
000000
000000
000000
000000
ENDCHAR
STARTCHAR char120
ENCODING 120
SWIDTH 1665 0
DWIDTH 15 0
BBX 13 25 0 -6
BITMAP
0000
0000
0000
0000
0000
0000
0000
F078
F8F8
3DE0
1FC0
0F80
0700
0700
0F80
1FC0
3DE0
F8F8
F078
0000
0000
0000
0000
0000
0000
ENDCHAR
STARTCHAR char121
ENCODING 121
SWIDTH 1665 0
DWIDTH 15 0
BBX 13 25 0 -6
BITMAP
0000
0000
0000
0000
0000
0000
0000
F078
F078
3060
38E0
18C0
1DC0
0D80
0F80
0700
0700
0E00
0E00
1C00
1C00
3800
3800
7000
0000
ENDCHAR
STARTCHAR char122
ENCODING 122
SWIDTH 1332 0
DWIDTH 12 0
BBX 10 25 0 -6
BITMAP
0000
0000
0000
0000
0000
0000
0000
FFC0
FFC0
E1C0
03C0
0780
0F00
1E00
3C00
7800
F1C0
FFC0
FFC0
0000
0000
0000
0000
0000
0000
ENDCHAR
STARTCHAR char123
ENCODING 123
SWIDTH 1221 0
DWIDTH 11 0
BBX 8 25 1 -6
BITMAP
0F
1C
38
30
30
38
38
18
18
10
20
60
E0
60
20
10
18
18
38
38
30
30
38
1C
0F
ENDCHAR
STARTCHAR char124
ENCODING 124
SWIDTH 777 0
DWIDTH 7 0
BBX 2 25 2 -6
BITMAP
C0
C0
C0
C0
C0
C0
C0
C0
C0
C0
C0
C0
C0
C0
C0
C0
C0
C0
C0
C0
C0
C0
C0
C0
C0
ENDCHAR
STARTCHAR char125
ENCODING 125
SWIDTH 1221 0
DWIDTH 11 0
BBX 8 25 1 -6
BITMAP
F0
38
1C
0C
0C
1C
1C
18
18
08
04
06
07
06
04
08
18
18
1C
1C
0C
0C
1C
38
F0
ENDCHAR
STARTCHAR char126
ENCODING 126
SWIDTH 1776 0
DWIDTH 16 0
BBX 14 25 0 -6
BITMAP
0000
0000
0000
0000
0000
0000
0000
0000
1C04
3E04
7F0C
6798
C3F8
81F0
80E0
0000
0000
0000
0000
0000
0000
0000
0000
0000
0000
ENDCHAR
ENDFONT
